<svg width="287" height="373" viewBox="0 0 287 373" fill="none" xmlns="http://www.w3.org/2000/svg">
<ellipse cx="123.436" cy="360.748" rx="104.426" ry="12.0792" fill="#28272C" fill-opacity="0.4"/>
<path d="M173.44 46.3215C177.552 44.6089 181.272 44.0124 184.349 44.8127C187.358 45.5951 189.59 47.023 191.13 48.926C192.673 50.8312 193.548 53.2459 193.786 56.0422C194.263 61.6503 192.169 68.7397 187.85 76.0774C179.218 90.741 161.825 106.18 139.132 112.396C133.456 113.95 129.626 113.906 127.252 112.794C124.946 111.714 123.898 109.561 123.937 106.504C123.976 103.425 125.128 99.5115 127.153 95.1223C129.173 90.7428 132.043 85.9297 135.476 81.0627C142.344 71.3266 151.437 61.4129 160.409 54.3586C164.895 50.8313 169.336 48.0311 173.44 46.3215Z" fill="#A5FFB9" stroke="#28272C"/>
<path d="M167.92 103.696C171.713 103.623 175.223 104.139 178.032 105.243C180.842 106.347 182.909 108.022 183.904 110.245C184.888 112.445 184.682 116.026 183.085 120.071C181.499 124.091 178.572 128.48 174.264 132.245C165.689 139.739 151.616 144.778 131.71 139.423C130.115 137.315 129.399 135.118 129.391 132.865C129.383 130.556 130.117 128.155 131.465 125.703C134.168 120.788 139.289 115.76 145.547 111.021C151.724 106.343 160.33 103.842 167.92 103.696Z" fill="#EDFF8F" stroke="#28272C"/>
<path d="M180.219 120.285C185.897 118.626 191.45 118.856 195.561 122.139C199.676 125.426 202.494 131.888 202.423 143.038C202.281 165.418 198.421 178.046 194.639 185.059C192.749 188.564 190.877 190.668 189.496 191.89C188.805 192.502 188.235 192.894 187.844 193.13C187.649 193.249 187.498 193.328 187.399 193.377C187.35 193.401 187.313 193.417 187.291 193.427C187.289 193.428 187.287 193.429 187.286 193.429C182.837 194.686 178.768 193.155 175.114 189.803C171.441 186.434 168.238 181.264 165.6 175.404C160.325 163.682 157.397 149.386 157.447 141.772C157.459 139.966 158.148 137.928 159.393 135.815C160.636 133.707 162.414 131.553 164.556 129.524C168.845 125.462 174.548 121.942 180.219 120.285Z" fill="#A5FFB9" stroke="#28272C"/>
<path d="M173.831 210.486C176.156 210.399 178.747 210.495 181.881 210.614C185.009 210.733 188.664 210.874 193.091 210.874C201.72 210.874 210.289 216.453 216.731 223.616C219.944 227.189 222.607 231.133 224.465 234.927C226.326 238.728 227.362 242.343 227.362 245.262C227.362 246.602 226.769 247.72 225.64 248.604C224.496 249.499 222.798 250.152 220.626 250.491C216.283 251.17 210.195 250.573 203.338 248.372C189.733 244.007 173.224 233.371 161.528 214.194C165.878 211.499 169.356 210.654 173.831 210.486Z" fill="#EDFF8F" stroke="#28272C"/>
<path d="M116.422 357.241H134.346L130.301 96.1753L126.721 96.78L116.422 357.241Z" fill="#28272C"/>
<path d="M125.002 251.38C125.21 251.037 125.457 250.694 125.729 250.429C126.353 249.793 127.59 248.713 128.264 248.105C146.203 232.729 164.401 217.69 182.983 203.613C185.413 201.788 187.958 200.032 190.521 198.472L191.245 197.955C191.485 197.777 191.714 197.58 191.951 197.397C194.79 195.069 197.313 192.17 199.729 189.156C204.568 183.041 208.951 176.363 213.056 169.43C209.145 176.564 204.937 183.466 200.256 189.819C197.894 192.988 195.399 196.066 192.564 198.582C192.173 198.934 191.517 199.46 191.091 199.785C188.567 201.463 186.162 203.265 183.746 205.237C165.645 220.105 147.92 235.939 130.489 252.07L129.153 253.36L128.514 253.996L128.231 254.293L128.16 254.366C128.149 254.376 128.152 254.376 128.16 254.366C128.181 254.348 128.199 254.325 128.217 254.302C128.264 254.238 128.303 254.161 128.325 254.078L124.995 251.389L125.002 251.38Z" fill="#28272C"/>
<path d="M131.597 249.694C113.441 234.661 95.6878 219.104 79.9926 201.658C74.8901 195.799 69.7836 189.716 66.5471 182.678C68.2812 186.135 70.5907 189.273 73.0281 192.283C85.5267 207.158 100.706 219.693 115.806 232.032C121.9 236.923 128.089 241.738 134.346 246.386L131.601 249.698L131.597 249.694Z" fill="#28272C"/>
<path d="M217.179 183.178C227.356 183.178 238.273 186.374 246.234 190.818C250.216 193.041 253.427 195.559 255.439 198.115C257.453 200.674 258.215 203.198 257.48 205.497C257.117 206.632 256.179 207.889 254.682 209.158C253.193 210.421 251.185 211.666 248.745 212.788C243.865 215.031 237.3 216.76 229.806 217.159C214.873 217.955 196.288 213.472 180.051 197.315C180.155 192.16 184.131 188.633 190.821 186.373C197.584 184.088 206.927 183.178 217.179 183.178Z" fill="#A5FFB9" stroke="#28272C"/>
<path d="M120.523 14.0555C122.715 10.4297 125.438 7.96402 128.735 7.00273C132.009 6.04771 135.945 6.55 140.638 9.04603C151.526 20.8478 156.212 32.6655 157.142 43.7481C158.074 54.8579 155.234 65.2694 151.016 74.2286C146.798 83.1882 141.209 90.6768 136.671 95.9281C134.403 98.5527 132.399 100.616 130.964 102.022C130.246 102.725 129.67 103.263 129.275 103.625C129.125 103.763 129 103.874 128.904 103.96C126.702 102.923 124.605 100.516 122.705 96.9928C120.733 93.3359 119.013 88.556 117.616 83.0881C114.821 72.1537 113.334 58.539 113.659 45.8197C113.985 33.0811 116.128 21.3268 120.523 14.0555Z" fill="#EDFF8F" stroke="#28272C"/>
<path d="M9.00201 137.086C12.3071 135.256 16.4328 134.871 21.1069 135.658C30.4703 137.236 41.8394 143.49 52.6428 151.741C63.4343 159.984 73.6009 170.173 80.5601 179.547C84.0405 184.235 86.706 188.703 88.2507 192.608C89.7422 196.379 90.1531 199.537 89.3527 201.856C89.2032 201.871 89.0001 201.891 88.7459 201.914C88.1471 201.967 87.2658 202.037 86.1414 202.104C83.8925 202.236 80.6704 202.354 76.7832 202.294C69.0059 202.174 58.5798 201.345 47.9647 198.51C37.3482 195.676 26.5684 190.843 18.0551 182.734C9.56758 174.65 3.3058 163.285 1.7209 147.32C3.18308 142.174 5.72657 138.9 9.00201 137.086Z" fill="#A5FFB9" stroke="#28272C"/>
<path d="M21.134 179.559C28.9286 179.301 44.4999 181.197 58.1841 185.016C65.0252 186.925 71.3598 189.305 76.0037 192.117C80.6476 194.929 83.4494 198.08 83.5971 201.499L83.5971 201.501C83.595 201.514 83.5909 201.539 83.5829 201.573C83.5669 201.642 83.536 201.752 83.4813 201.898C83.3718 202.19 83.1629 202.63 82.7701 203.174C81.985 204.261 80.4552 205.777 77.4855 207.357C71.5352 210.523 59.8534 213.925 36.9983 214.681C25.6117 215.057 18.0334 213.027 13.2901 209.834C8.56685 206.653 6.61325 202.293 6.50834 197.871C6.40298 193.427 8.16555 188.898 10.9255 185.447C13.6898 181.991 17.3974 179.683 21.134 179.559Z" fill="#EDFF8F" stroke="#28272C"/>
<path d="M31.4131 212.981C39.715 211.092 56.9471 209.661 72.6787 210.493C80.5433 210.909 88.0005 211.889 93.764 213.645C96.6459 214.523 99.0821 215.59 100.93 216.86C102.759 218.118 103.982 219.556 104.52 221.187C104.521 221.199 104.522 221.214 104.523 221.232C104.524 221.3 104.522 221.41 104.504 221.56C104.467 221.861 104.365 222.326 104.094 222.931C103.553 224.141 102.329 225.929 99.5734 228.086C94.0505 232.409 82.4395 238.165 58.1173 243.698C45.9949 246.455 37.2838 246.082 31.2924 243.97C25.3193 241.864 22.0307 238.027 20.7133 233.772C19.3901 229.497 20.042 224.751 22.0543 220.837C24.0676 216.92 27.4111 213.892 31.4131 212.981Z" fill="#A5FFB9" stroke="#28272C"/>
<path d="M82.4604 92.7788C76.8403 92.7788 73.199 95.2277 71.0601 99.1704C68.8985 103.155 68.2496 108.711 68.7827 114.917C69.8486 127.322 75.6129 142.045 82.853 151.234C90.1764 160.529 94.2752 165.507 98.3101 168.191C102.292 170.84 106.238 171.267 113.392 171.267C116.855 171.267 119.53 169.613 121.615 166.903C123.711 164.177 125.193 160.399 126.224 156.234C128.284 147.908 128.5 138.2 128.356 132.74C128.287 130.133 126.855 126.328 124.316 122.042C121.788 117.774 118.198 113.092 113.893 108.748C105.266 100.041 93.8612 92.7788 82.4604 92.7788Z" fill="#A5FFB9" stroke="#28272C"/>
<path d="M263.845 144.992C272.249 144.992 277.677 146.678 281.024 149.211C284.351 151.728 285.681 155.128 285.801 158.716C285.92 162.32 284.814 166.109 283.263 169.323C281.709 172.545 279.74 175.123 278.2 176.332C275.005 178.84 262.514 186.652 247.109 190.662C231.8 194.647 213.721 194.85 198.997 182.507L198.734 182.283C197.995 181.654 197.77 180.692 198.154 179.32C198.543 177.934 199.536 176.23 201.088 174.312C204.183 170.486 209.381 165.946 215.891 161.592C228.916 152.879 247.06 144.992 263.845 144.992Z" fill="#EDFF8F" stroke="#28272C"/>
</svg>
