<svg width="323" height="540" viewBox="0 0 323 540" fill="none" xmlns="http://www.w3.org/2000/svg">
<ellipse cx="161.5" cy="528" rx="161.5" ry="12" fill="#28272C" fill-opacity="0.4"/>
<path d="M238.402 218.485C243.206 217.388 247.48 217.678 250.958 219.681C254.418 221.674 257.178 225.413 258.875 231.4C257.783 250.126 251.677 263.652 243.153 273.423C234.611 283.213 223.615 289.263 212.728 292.976C201.84 296.689 191.079 298.059 183.036 298.498C179.015 298.717 175.677 298.704 173.345 298.636C172.18 298.603 171.266 298.554 170.645 298.515C170.38 298.499 170.168 298.483 170.012 298.471C169.074 295.752 169.402 291.999 170.826 287.517C172.295 282.891 174.906 277.57 178.351 271.966C185.239 260.759 195.419 248.482 206.31 238.454C217.215 228.412 228.77 220.684 238.402 218.485Z" fill="#EDFF8F" stroke="#28272C"/>
<path d="M277.508 328.514C285.032 328.514 293.674 330.211 300.418 333.392C307.193 336.588 311.873 341.186 311.873 346.911C311.873 352.641 307.287 357.936 298.966 361.12C290.667 364.294 278.769 365.304 264.48 362.505C250.172 359.702 240.79 355.699 234.997 352.41C232.1 350.765 230.099 349.297 228.827 348.247C228.191 347.723 227.737 347.302 227.444 347.015C227.317 346.89 227.221 346.79 227.153 346.718C227.225 343.108 229.306 340.163 232.75 337.753C236.261 335.297 241.129 333.444 246.513 332.068C257.276 329.318 269.945 328.514 277.508 328.514Z" fill="#EDFF8F" stroke="#28272C"/>
<path d="M230.73 165.203C228.873 172.847 222.353 187.366 214.109 199.445C209.989 205.482 205.459 210.879 200.894 214.497C196.34 218.106 191.843 219.873 187.715 218.9L187.71 218.899C187.708 218.898 187.702 218.895 187.693 218.892C187.675 218.884 187.645 218.87 187.604 218.85C187.522 218.809 187.395 218.742 187.234 218.638C186.912 218.432 186.448 218.081 185.917 217.521C184.856 216.401 183.512 214.427 182.493 211.044C180.453 204.267 179.719 191.849 185.17 169.411C187.882 158.245 192.342 151.537 197.379 147.945C202.407 144.358 208.078 143.828 213.329 145.147C218.59 146.469 223.413 149.646 226.684 153.436C229.968 157.241 231.613 161.569 230.73 165.203Z" fill="#EDFF8F" stroke="#28272C"/>
<path d="M208.693 206.205C211.482 206.1 214.59 206.215 218.341 206.359C222.088 206.503 226.463 206.673 231.763 206.673C242.137 206.673 252.423 213.432 260.148 222.092C264.002 226.412 267.198 231.184 269.427 235.774C271.66 240.372 272.908 244.753 272.908 248.301C272.908 249.956 272.179 251.336 270.806 252.419C269.418 253.514 267.366 254.306 264.755 254.718C259.536 255.54 252.229 254.816 244.006 252.156C227.671 246.871 207.846 233.987 193.821 210.748C199.087 207.44 203.288 206.409 208.693 206.205Z" fill="#EDFF8F" stroke="#28272C"/>
<path d="M183.026 304.668C187.652 303.512 191.567 305.653 194.607 309.741C197.654 313.841 199.757 319.834 200.682 326.129C201.606 332.422 201.344 338.955 199.72 344.119C198.093 349.292 195.144 352.979 190.761 353.839C186.559 354.664 182.776 352.441 179.722 348.364C176.67 344.289 174.424 338.448 173.334 332.319C172.245 326.19 172.322 319.829 173.861 314.72C175.399 309.613 178.368 305.833 183.026 304.668Z" fill="#A5FFB9" stroke="#28272C"/>
<path d="M200.269 94.6448C208.427 89.8909 216.717 88.4105 223.834 92.1838L224.172 92.3674C231.324 96.349 233.396 103.822 231.953 112.729C230.51 121.643 225.55 131.871 218.805 141.09C212.062 150.306 203.574 158.463 195.124 163.258C186.659 168.062 178.364 169.428 171.873 165.34C165.647 161.418 163.849 153.993 165.256 145.102C166.662 136.222 171.256 126.025 177.595 116.825C183.934 107.627 191.986 99.4715 200.269 94.6448Z" fill="#A5FFB9" stroke="#28272C"/>
<path d="M277.202 277.08C288.126 277.08 293.51 280.328 295.033 284.897C295.803 287.207 295.626 289.944 294.582 292.936C293.538 295.926 291.638 299.139 289.013 302.371C278.576 315.225 256.9 328.103 233.397 328.288C233.398 328.268 233.398 328.246 233.399 328.225C233.413 327.847 233.439 327.292 233.487 326.584C233.584 325.168 233.77 323.141 234.131 320.708C234.852 315.84 236.269 309.359 239.043 302.884C241.817 296.409 245.94 289.959 252.068 285.131C258.188 280.308 266.336 277.08 277.202 277.08Z" fill="#A5FFB9" stroke="#28272C"/>
<path d="M152.617 528.372H170.54L166.495 155.087L162.915 155.952L152.617 528.372Z" fill="#28272C"/>
<path d="M161.45 385.682C139.638 373.623 118.248 360.877 97.7525 346.744C85.6617 338.13 73.2091 329.431 63.7762 317.883C66.9707 321.67 70.669 324.994 74.4771 328.149C93.8103 343.653 115.537 355.929 137.183 367.952C145.892 372.699 154.683 377.337 163.527 381.763L161.45 385.678V385.682Z" fill="#28272C"/>
<path d="M162.747 377.752C165.005 376.208 168.523 374.118 170.872 372.643C184.019 364.6 197.457 356.489 210.867 348.93C215.599 346.281 220.348 343.633 225.274 341.354L227.429 340.483L225.36 341.531C220.656 344.202 216.175 347.233 211.694 350.263C199.014 358.892 186.328 368.097 173.945 377.188C172.292 378.413 169.093 380.776 167.468 382.013L166.767 382.565L162.753 377.752H162.747Z" fill="#28272C"/>
<path d="M159.635 247.667C159.769 247.39 159.929 247.113 160.105 246.899C160.508 246.386 161.307 245.514 161.742 245.023C173.331 232.609 185.088 220.468 197.092 209.103C198.662 207.63 200.306 206.212 201.961 204.953L202.429 204.535C202.584 204.391 202.732 204.233 202.885 204.085C204.719 202.205 206.349 199.864 207.91 197.431C211.036 192.494 213.868 187.103 216.519 181.505C213.993 187.266 211.274 192.838 208.25 197.967C206.724 200.525 205.113 203.01 203.281 205.041C203.029 205.326 202.605 205.75 202.329 206.012C200.699 207.368 199.145 208.822 197.585 210.414C185.891 222.418 174.441 235.201 163.18 248.225L162.316 249.266L161.904 249.779L161.721 250.019L161.675 250.078C161.668 250.086 161.67 250.086 161.675 250.078C161.689 250.064 161.7 250.045 161.712 250.027C161.742 249.975 161.768 249.912 161.781 249.846L159.63 247.675L159.635 247.667Z" fill="#28272C"/>
<path d="M163.116 228.26C144.959 213.227 127.206 197.67 111.511 180.224C106.409 174.365 101.302 168.282 98.0656 161.244C99.7997 164.701 102.109 167.839 104.547 170.849C117.045 185.724 132.225 198.259 147.325 210.598C153.418 215.489 159.607 220.304 165.865 224.952L163.12 228.263L163.116 228.26Z" fill="#28272C"/>
<path d="M39.5865 327.206C44.7848 324.904 48.8767 325.038 54.4332 326.279C57.2308 326.903 60.3715 327.802 64.2174 328.812C68.0544 329.819 72.5659 330.93 78.0651 331.967L78.1412 331.56L78.152 331.976H78.1578L78.1696 331.844C78.176 331.976 78.1765 331.976 78.1764 331.976C78.1771 331.976 78.1792 331.976 78.1813 331.976C78.1855 331.976 78.1924 331.975 78.2018 331.975C78.2211 331.974 78.251 331.973 78.2906 331.973C78.3703 331.972 78.4894 331.973 78.6403 331.978C78.9423 331.988 79.3708 332.018 79.8707 332.095C80.8764 332.25 82.1407 332.593 83.2457 333.331C84.3386 334.061 85.2872 335.184 85.6813 336.942C86.0787 338.714 85.9225 341.179 84.6998 344.595C84.1214 346.211 82.6204 348.108 80.3385 350.174C78.0687 352.229 75.0732 354.408 71.5768 356.597C64.5844 360.974 55.6292 365.362 46.569 368.84C37.5047 372.32 28.3651 374.878 21.0006 375.615C17.3166 375.983 14.1076 375.892 11.5856 375.253C9.06675 374.615 7.28594 373.445 6.3512 371.693C4.40186 368.038 4.75792 363.76 6.64807 359.249C8.53839 354.738 11.9373 350.061 15.9479 345.69C23.9747 336.94 34.3361 329.532 39.5865 327.206Z" fill="#EDFF8F" stroke="#28272C"/>
<path d="M163.282 12.8634C168.017 13.6344 171.977 15.8379 175.226 19.1294C181.741 25.7304 185.412 36.7248 186.628 49.2963C187.842 61.8516 186.598 75.8974 183.365 88.5104C180.128 101.134 174.914 112.262 168.236 119.033C167.73 119.547 167.048 119.757 166.151 119.642C165.235 119.524 164.121 119.066 162.837 118.264C160.274 116.661 157.177 113.771 153.879 109.911C147.291 102.201 139.986 90.7286 134.617 78.3043C129.245 65.872 125.837 52.5439 126.977 41.1065C127.546 35.3949 129.248 30.1679 132.392 25.7551C135.535 21.345 140.139 17.7205 146.555 15.239C152.991 12.7499 158.542 12.0917 163.282 12.8634Z" fill="#A5FFB9" stroke="#28272C"/>
<path d="M101.284 201.645C109.126 199.682 118.496 199.52 127.336 200.57C136.178 201.621 144.444 203.879 150.076 206.72L150.182 206.774H150.293C150.295 206.774 150.301 206.774 150.312 206.775C150.332 206.777 150.369 206.781 150.42 206.791C150.522 206.81 150.682 206.853 150.885 206.941C151.289 207.117 151.878 207.485 152.522 208.26C153.817 209.82 155.345 213.042 155.992 219.663C156.139 221.164 155.502 223.038 154.134 225.159C152.773 227.267 150.73 229.555 148.176 231.861C143.068 236.472 135.968 241.107 128.359 244.481C120.745 247.858 112.665 249.952 105.589 249.53C98.5354 249.109 92.5018 246.195 88.8555 239.557H88.8545C82.4576 227.911 81.7629 219.42 84.4834 213.39C87.2067 207.355 93.4316 203.611 101.284 201.645Z" fill="#EDFF8F" stroke="#28272C"/>
<path d="M122.159 277.093C127.467 276.934 131.711 278.317 135.034 280.797C138.363 283.281 140.802 286.893 142.446 291.246C145.739 299.964 145.813 311.573 143.537 322.694C141.261 333.816 136.654 344.361 130.676 350.964C127.689 354.263 124.385 356.551 120.884 357.464C117.397 358.373 113.669 357.931 109.787 355.683C94.6903 346.936 87.0776 327.592 88.6338 310.234C89.4108 301.567 92.4718 293.44 97.9844 287.407C103.489 281.383 111.468 277.412 122.159 277.093Z" fill="#EDFF8F" stroke="#28272C"/>
<path d="M186.948 368.192C204.866 350.312 228.17 346.746 246.782 351.428C265.447 356.124 279.173 369.028 278.326 383.915C278.119 387.54 276.228 390.41 273.045 392.624C269.849 394.847 265.366 396.393 260.054 397.328C249.436 399.196 235.663 398.592 222.705 396.25C209.738 393.907 197.666 389.837 190.421 384.828C186.793 382.319 184.452 379.627 183.74 376.868C183.04 374.156 183.885 371.247 186.948 368.192Z" fill="#A5FFB9" stroke="#28272C"/>
<path d="M114.286 102.4C117.705 98.4519 121.321 96.404 124.958 95.8081C128.598 95.2117 132.322 96.0602 135.971 98.0183C143.285 101.944 150.201 110.282 155.283 119.982C160.362 129.674 163.566 140.642 163.524 149.751C163.482 158.865 160.211 165.959 152.514 168.272C137.423 172.808 120.982 164.336 111.737 150.649C102.514 136.994 100.546 118.27 114.286 102.4Z" fill="#EDFF8F" stroke="#28272C"/>
<path d="M93.6244 151.361C102.489 157.23 110.028 163.401 114.517 169.333C118.959 175.205 120.311 180.689 117.283 185.43C93.5904 190.683 74.8379 184.074 62.3963 174.805C56.153 170.154 51.5044 164.837 48.6203 160.021C47.1782 157.613 46.183 155.339 45.647 153.346C45.1089 151.345 45.0441 149.666 45.4107 148.423L45.4113 148.422C46.1533 145.902 48.3374 144.055 51.6099 142.902C54.8803 141.751 59.1639 141.324 63.9344 141.603C73.4747 142.161 84.8256 145.535 93.6244 151.361Z" fill="#EDFF8F" stroke="#28272C"/>
<path d="M114.197 359.322C118.134 358.623 121.741 358.783 124.733 359.984C127.712 361.179 130.12 363.422 131.653 366.972C137.636 380.816 132.504 398.018 121.9 409.088C116.608 414.614 109.98 418.579 102.746 419.831C95.522 421.081 87.6555 419.632 79.8516 414.269C75.9801 411.609 73.7162 408.455 72.7061 405.039C71.6942 401.616 71.9269 397.884 73.1318 394.053C75.5461 386.377 81.8377 378.393 89.5498 371.963C97.2599 365.535 106.319 360.721 114.197 359.322Z" fill="#B6FCC5" stroke="#28272C"/>
<path d="M252.745 149.275C264.751 149.275 270.699 152.863 272.383 157.943C273.235 160.51 273.037 163.547 271.887 166.858C270.738 170.168 268.647 173.722 265.76 177.295C254.275 191.511 230.422 205.752 204.563 205.938C204.564 205.899 204.565 205.857 204.567 205.813C204.582 205.396 204.611 204.782 204.664 204C204.77 202.434 204.974 200.194 205.371 197.505C206.164 192.126 207.721 184.962 210.771 177.805C213.822 170.648 218.358 163.517 225.099 158.177C231.833 152.844 240.795 149.275 252.745 149.275Z" fill="#A5FFB9" stroke="#28272C"/>
<path d="M39.0055 236.569C42.8623 233.65 46.8337 232.711 50.7748 233.292C54.7325 233.874 58.7056 235.995 62.5245 239.279C70.1667 245.849 77.0768 256.976 81.8609 269.204C86.6438 281.429 89.2736 294.683 88.4185 305.474C87.5627 316.274 83.2448 324.45 74.2807 326.871C72.2161 327.429 69.6201 326.894 66.6614 325.364C63.7139 323.84 60.4758 321.363 57.1663 318.159C50.5487 311.752 43.7075 302.495 38.4068 292.333C33.1045 282.168 29.3642 271.138 28.9055 261.186C28.4473 251.244 31.2612 242.432 39.0055 236.569Z" fill="#A5FFB9" stroke="#28272C"/>
</svg>
