<svg width="138" height="223" viewBox="0 0 138 223" fill="none" xmlns="http://www.w3.org/2000/svg">
<ellipse cx="67.4095" cy="210.851" rx="61.1751" ry="12.0792" fill="#28272C" fill-opacity="0.4"/>
<path d="M104.322 13.1023C108.503 11.5997 112.714 11.052 116.828 11.78C120.939 12.5075 124.987 14.5143 128.838 18.1716C132.705 21.8439 134.993 25.5011 136.015 29.0593C137.035 32.6126 136.803 36.1003 135.577 39.4578C133.117 46.1962 126.645 52.4251 118.237 57.4695C109.843 62.5052 99.5889 66.3176 89.681 68.2585C79.7621 70.2015 70.2505 70.2567 63.3148 67.8435C62.8276 67.6739 62.4758 67.2986 62.2679 66.657C62.0541 65.9971 62.004 65.0809 62.1409 63.9207C62.4143 61.6044 63.4122 58.4798 65.0257 54.8826C68.2481 47.6985 73.8706 38.754 80.8021 30.8484C87.7392 22.9365 95.9454 16.1124 104.322 13.1023Z" fill="#EDFF8F" stroke="#28272C"/>
<path d="M57.3368 211.382L69.8011 211.046L62.9814 62.3295L60.5013 62.7411L57.3368 211.382Z" fill="#28272C"/>
<path d="M13.3623 3.27319C16.6135 1.52668 20.0614 1.0174 23.5889 1.50562C30.6688 2.48556 38.0877 7.49076 44.7559 14.6375C51.4128 21.7721 57.2645 30.9812 61.2197 40.2478C65.1792 49.5244 67.2141 58.8016 66.3057 66.0847C66.2416 66.597 65.9485 67.0196 65.3662 67.3582C64.7674 67.7063 63.8843 67.9481 62.7246 68.0593C60.41 68.2812 57.1569 67.9675 53.3145 67.1511C45.6405 65.5207 35.7512 61.9174 26.6016 56.8171C17.4444 51.7126 9.08338 45.139 4.40527 37.5945C2.07008 33.8283 0.659671 29.8317 0.512695 25.6599C0.365916 21.4915 1.47978 17.1146 4.24316 12.5808C7.01775 8.02874 10.1066 5.02222 13.3623 3.27319Z" fill="#A5FFB9" stroke="#28272C"/>
</svg>
