<svg width="401" height="594" viewBox="0 0 401 594" fill="none" xmlns="http://www.w3.org/2000/svg">
<ellipse cx="193.972" cy="581.748" rx="193.656" ry="12.0792" fill="#28272C" fill-opacity="0.4"/>
<path d="M151.724 430.252C155.117 429.651 158.221 429.789 160.792 430.818C163.349 431.843 165.417 433.763 166.735 436.81C171.891 448.718 167.471 463.525 158.32 473.06C153.755 477.817 148.04 481.228 141.805 482.305C135.58 483.38 128.799 482.135 122.068 477.52C118.734 475.232 116.789 472.524 115.921 469.595C115.051 466.659 115.25 463.455 116.288 460.16C118.369 453.557 123.796 446.68 130.455 441.14C137.112 435.601 144.93 431.456 151.724 430.252Z" fill="#B6FCC5" stroke="#28272C"/>
<path d="M46.7397 364.132C56.2138 363.011 66.0178 363.852 73.1909 366.786C76.7753 368.252 79.672 370.227 81.5552 372.71C83.4293 375.18 84.3203 378.178 83.8608 381.754C82.0653 395.715 69.5032 406.647 55.394 409.947C41.322 413.238 25.8594 408.903 18.229 392.486C16.3317 388.404 16.0017 384.763 16.8257 381.562C17.6511 378.357 19.6484 375.54 22.4966 373.139C28.2055 368.328 37.261 365.253 46.7397 364.132Z" fill="#B6FCC5" stroke="#28272C"/>
<path d="M15.9175 296.891C19.631 295.583 23.7697 295.563 28.0786 296.553C36.7086 298.537 45.9346 304.559 53.5405 312.17C61.1462 319.782 67.0671 328.918 69.147 337.06C70.186 341.128 70.2581 344.912 69.1411 348.129C68.0289 351.332 65.722 354.02 61.9048 355.884C47.046 363.143 27.7337 358.983 14.8149 348.67C8.3654 343.522 3.54619 336.867 1.67236 329.388C-0.198439 321.921 0.854681 313.589 6.22314 305.04C8.8873 300.798 12.2104 298.196 15.9175 296.891Z" fill="#EDFF8F" stroke="#28272C"/>
<path d="M180.79 193.901C186.12 193.378 190.256 194.407 193.383 196.531C196.513 198.658 198.684 201.917 200.016 205.948C202.685 214.029 201.944 225.108 198.88 235.905C195.819 246.695 190.463 257.108 184.005 263.852C177.544 270.6 170.103 273.571 162.742 269.858C148.318 262.582 142.071 244.682 144.853 227.983C147.629 211.322 159.376 196.008 180.79 193.901Z" fill="#EDFF8F" stroke="#28272C"/>
<path d="M251.57 233.818C260.582 232.962 270.023 233.888 277.064 236.668C284.116 239.453 288.6 244.014 288.123 250.383C287.182 262.937 275.805 272.613 262.473 275.365C249.178 278.11 234.108 273.923 225.882 258.919C223.839 255.19 223.328 251.9 223.935 249.041C224.543 246.178 226.284 243.679 228.87 241.561C234.056 237.311 242.549 234.676 251.57 233.818Z" fill="#EDFF8F" stroke="#28272C"/>
<path d="M147.111 165.003C155.357 159.385 163.612 157.506 170.038 161.939C182.602 170.605 184.324 188.311 177.258 203.82C170.208 219.292 154.47 232.386 132.396 231.706C126.9 231.536 123.021 230.04 120.442 227.65C117.866 225.262 116.526 221.924 116.221 217.948C115.607 209.966 119.176 199.551 125.015 189.682C130.846 179.826 138.889 170.605 147.111 165.003Z" fill="#A5FFB9" stroke="#28272C"/>
<path d="M261.51 75.6135C265.622 73.9009 269.342 73.3044 272.419 74.1047C275.428 74.8871 277.66 76.315 279.201 78.218C280.743 80.1232 281.618 82.5378 281.856 85.3342C282.333 90.9423 280.24 98.0317 275.92 105.369C267.289 120.033 249.895 135.472 227.203 141.688C221.526 143.242 217.696 143.198 215.323 142.086C213.016 141.006 211.968 138.853 212.007 135.796C212.047 132.717 213.199 128.803 215.223 124.414C217.243 120.035 220.113 115.222 223.546 110.355C230.414 100.619 239.507 90.7049 248.479 83.6506C252.965 80.1233 257.406 77.3231 261.51 75.6135Z" fill="#A5FFB9" stroke="#28272C"/>
<path d="M130.014 82.0129C132.691 80.6502 135.991 80.4489 139.711 81.1995C147.166 82.7036 156.115 87.9921 164.568 94.8713C173.01 101.741 180.898 110.15 186.232 117.821C188.901 121.657 190.918 125.292 192.051 128.445C193.134 131.459 193.376 133.944 192.713 135.739C192.601 135.746 192.459 135.755 192.289 135.765C191.808 135.792 191.099 135.825 190.195 135.848C188.388 135.894 185.799 135.903 182.682 135.752C176.444 135.451 168.101 134.514 159.661 131.97C151.22 129.426 142.708 125.282 136.101 118.589C129.519 111.922 124.803 102.699 123.951 89.927C125.256 85.8811 127.367 83.3602 130.014 82.0129Z" fill="#EDFF8F" stroke="#28272C"/>
<path d="M269.807 116.376C273.939 115.439 277.604 115.689 280.583 117.395C283.544 119.09 285.913 122.273 287.373 127.384C286.43 143.414 281.172 154.988 273.837 163.348C266.484 171.728 257.017 176.908 247.639 180.088C238.261 183.268 228.991 184.441 222.06 184.817C218.596 185.005 215.72 184.994 213.711 184.936C212.707 184.907 211.92 184.866 211.385 184.833C211.182 184.82 211.016 184.807 210.887 184.797C210.105 182.492 210.384 179.312 211.602 175.5C212.867 171.542 215.115 166.987 218.083 162.186C224.017 152.586 232.788 142.068 242.172 133.476C251.571 124.871 261.522 118.257 269.807 116.376Z" fill="#EDFF8F" stroke="#28272C"/>
<path d="M46.8757 152.455C49.6312 150.758 53.0216 150.508 56.8523 151.443C64.5424 153.32 73.7892 159.926 82.531 168.532C91.257 177.123 99.4135 187.641 104.932 197.241C107.692 202.042 109.784 206.598 110.961 210.558C112.093 214.369 112.354 217.555 111.627 219.869C111.512 219.878 111.367 219.89 111.193 219.902C110.696 219.935 109.966 219.976 109.033 220.005C107.167 220.063 104.494 220.073 101.275 219.885C94.8341 219.51 86.2187 218.338 77.5037 215.161C68.7903 211.984 59.9911 206.808 53.155 198.43C46.3335 190.071 41.4394 178.491 40.5632 162.451C41.9233 157.327 44.131 154.145 46.8757 152.455Z" fill="#A5FFB9" stroke="#28272C"/>
<path d="M251.146 329.448C255.327 327.945 259.539 327.397 263.653 328.125C267.764 328.853 271.811 330.86 275.663 334.517C279.53 338.189 281.818 341.847 282.839 345.405C283.86 348.958 283.628 352.446 282.402 355.803C279.942 362.542 273.469 368.771 265.061 373.815C256.667 378.851 246.413 382.663 236.505 384.604C226.587 386.547 217.075 386.602 210.139 384.189C209.652 384.019 209.3 383.644 209.092 383.002C208.879 382.343 208.828 381.426 208.965 380.266C209.239 377.95 210.237 374.825 211.85 371.228C215.072 364.044 220.695 355.099 227.626 347.194C234.564 339.282 242.77 332.458 251.146 329.448Z" fill="#EDFF8F" stroke="#28272C"/>
<path d="M170.682 40.7815C173.658 39.9264 176.579 40.123 179.393 41.1555C185.044 43.2294 190.276 48.6844 194.517 55.7874C198.749 62.8761 201.952 71.5351 203.579 79.9016C205.157 88.0173 205.242 95.8006 203.398 101.59L203.213 102.144C203.08 102.528 202.785 102.81 202.263 102.98C201.722 103.155 200.963 103.198 199.991 103.082C198.052 102.851 195.429 102.01 192.403 100.646C186.36 97.9217 178.834 93.1696 172.184 87.3118C165.527 81.4484 159.794 74.5194 157.27 67.4563C156.01 63.9314 155.554 60.386 156.167 56.925C156.78 53.4675 158.466 50.0616 161.54 46.8186C164.63 43.5601 167.7 41.6381 170.682 40.7815Z" fill="#A5FFB9" stroke="#28272C"/>
<path d="M106.004 255.331C115.844 255.331 124.812 256.241 131.302 258.524C137.72 260.781 141.545 264.309 141.638 269.484C126.046 285.63 108.21 290.108 93.8826 289.313C86.6912 288.914 80.3905 287.187 75.7078 284.946C73.366 283.825 71.4388 282.58 70.0095 281.319C68.574 280.051 67.6727 278.794 67.323 277.656C66.6127 275.347 67.3471 272.818 69.28 270.261C71.2117 267.706 74.2955 265.189 78.1179 262.968C85.7619 258.526 96.2417 255.331 106.004 255.331Z" fill="#EDFF8F" stroke="#28272C"/>
<path d="M239.625 190.656C243.418 190.583 246.928 191.099 249.737 192.203C252.547 193.307 254.614 194.982 255.609 197.205C256.594 199.405 256.387 202.986 254.791 207.031C253.204 211.051 250.277 215.44 245.969 219.205C237.394 226.699 223.321 231.739 203.416 226.384C201.82 224.275 201.104 222.078 201.096 219.825C201.088 217.516 201.822 215.115 203.17 212.663C205.873 207.749 210.994 202.72 217.252 197.981C223.429 193.303 232.035 190.802 239.625 190.656Z" fill="#EDFF8F" stroke="#28272C"/>
<path d="M355.533 155.581C361.076 155.581 364.669 158.027 366.781 161.97C368.915 165.956 369.557 171.513 369.03 177.719C367.978 190.126 362.286 204.85 355.139 214.039C347.909 223.334 343.864 228.311 339.882 230.995C335.953 233.642 332.06 234.069 324.998 234.069C321.585 234.069 318.947 232.417 316.889 229.707C314.819 226.981 313.355 223.204 312.338 219.038C310.304 210.711 310.091 201.002 310.233 195.542C310.301 192.934 311.715 189.127 314.222 184.841C316.718 180.573 320.262 175.892 324.511 171.548C333.028 162.84 344.284 155.581 355.533 155.581Z" fill="#A5FFB9" stroke="#28272C"/>
<path d="M377.632 224.159C386.037 224.159 391.465 225.846 394.812 228.378C398.139 230.895 399.469 234.295 399.588 237.883C399.708 241.488 398.602 245.276 397.051 248.49C395.496 251.712 393.528 254.29 391.987 255.499C388.792 258.007 376.301 265.82 360.896 269.829C345.587 273.814 327.508 274.017 312.784 261.674L312.521 261.45C311.783 260.822 311.557 259.859 311.941 258.487C312.33 257.102 313.324 255.397 314.875 253.479C317.97 249.653 323.169 245.114 329.679 240.759C342.704 232.046 360.847 224.159 377.632 224.159Z" fill="#EDFF8F" stroke="#28272C"/>
<path d="M105.129 140.661C108.255 138.861 111.644 137.942 114.981 138.708C118.311 139.471 121.695 141.934 124.765 147.119C130.902 157.484 130.915 172.775 128.327 185.371C127.035 191.657 125.104 197.228 123.001 201.127C121.948 203.078 120.865 204.585 119.818 205.556C118.763 206.535 117.822 206.901 117.021 206.767L116.979 206.76H116.978C108.965 205.408 103.362 201.897 99.4766 197.304C95.5772 192.695 93.3837 186.967 92.252 181.169C89.9858 169.557 92.0022 157.783 92.9482 154.511C93.4024 152.941 94.861 150.385 97.0273 147.747C99.1855 145.118 102.004 142.461 105.129 140.661Z" fill="#EDFF8F" stroke="#28272C"/>
<path d="M231.329 145.143C234.782 144.12 238.875 144.646 243.637 147.828C248.395 151.007 252.156 156.113 254.988 162.073C257.818 168.029 259.703 174.806 260.728 181.281C261.753 187.758 261.913 193.907 261.307 198.607C261.004 200.959 260.513 202.924 259.857 204.38C259.195 205.849 258.405 206.715 257.555 207.02C249.402 209.946 242.796 209.604 237.458 207.382C232.11 205.156 227.976 201.018 224.822 196.256C218.898 187.314 216.502 176.283 216 172.04L215.924 171.284C215.793 169.59 216.267 166.462 217.387 162.892C218.503 159.337 220.239 155.405 222.583 152.105C224.929 148.801 227.852 146.173 231.329 145.143Z" fill="#A5FFB9" stroke="#28272C"/>
<path d="M290.286 400.281C295.463 400.281 301.409 401.469 306.045 403.69C310.709 405.926 313.874 409.116 313.874 413.05C313.874 416.987 310.772 420.664 305.053 422.887C299.354 425.102 291.166 425.814 281.315 423.852C271.445 421.887 264.98 419.082 260.993 416.782C259 415.632 257.625 414.607 256.753 413.876C256.317 413.51 256.006 413.217 255.806 413.018C255.743 412.955 255.692 412.9 255.65 412.856C255.72 410.409 257.118 408.4 259.453 406.739C261.856 405.03 265.199 403.735 268.911 402.771C276.329 400.845 285.067 400.281 290.286 400.281Z" fill="#EDFF8F" stroke="#28272C"/>
<path d="M55.449 195.325C61.8981 195.325 74.7448 197.728 85.9812 201.993C91.5966 204.124 96.7742 206.708 100.539 209.664C104.293 212.611 106.552 215.856 106.579 219.322C106.579 219.324 106.578 219.329 106.577 219.336C106.574 219.35 106.57 219.376 106.562 219.411C106.546 219.482 106.517 219.593 106.467 219.74C106.366 220.033 106.18 220.469 105.84 221C105.159 222.059 103.853 223.514 101.361 224.987C96.3657 227.939 86.6115 230.952 67.6462 230.952C58.2177 230.952 52.0212 228.681 48.197 225.352C44.3807 222.031 42.8646 217.601 42.8992 213.142C42.9338 208.673 44.5282 204.194 46.9109 200.838C49.3051 197.466 52.4187 195.325 55.449 195.325Z" fill="#EDFF8F" stroke="#28272C"/>
<path d="M63.6228 229.064C70.5179 227.455 84.7867 226.595 97.7585 227.944C104.243 228.619 110.366 229.843 115.066 231.781C119.769 233.721 122.914 236.32 123.723 239.671C123.724 239.685 123.725 239.706 123.724 239.731C123.724 239.803 123.719 239.918 123.699 240.071C123.659 240.379 123.56 240.847 123.318 241.446C122.835 242.645 121.773 244.389 119.444 246.446C114.776 250.57 105.04 255.932 84.7927 260.654C74.7144 263.005 67.5611 262.34 62.7039 260.05C57.8631 257.767 55.241 253.841 54.2615 249.516C53.2786 245.175 53.9525 240.431 55.7273 236.576C57.5074 232.71 60.3479 229.829 63.6228 229.064Z" fill="#A5FFB9" stroke="#28272C"/>
<path d="M305.091 167.629C308.449 166.601 312.576 167.845 316.293 170.621C319.995 173.387 323.195 177.61 324.679 182.345C326.161 187.07 325.934 192.291 322.816 197.112C319.691 201.944 313.62 206.441 303.28 209.608C282.502 215.972 270.827 216.053 264.381 214.594C261.164 213.865 259.254 212.755 258.159 211.854C257.611 211.403 257.263 211.001 257.056 210.721C256.953 210.581 256.884 210.471 256.843 210.4C256.822 210.365 256.809 210.338 256.802 210.323C256.799 210.318 256.797 210.315 256.796 210.312C255.694 206.608 257.127 202.39 260.296 197.992C263.47 193.586 268.313 189.104 273.778 184.957C284.712 176.66 298.014 169.795 305.091 167.629Z" fill="#EDFF8F" stroke="#28272C"/>
<path d="M291.669 183.866C297.346 182.207 302.899 182.437 307.01 185.721C311.126 189.007 313.944 195.47 313.873 206.619C313.731 228.999 309.87 241.627 306.089 248.641C304.199 252.145 302.327 254.249 300.945 255.472C300.254 256.083 299.684 256.475 299.294 256.712C299.098 256.83 298.947 256.909 298.848 256.958C298.799 256.982 298.762 256.999 298.74 257.009C298.738 257.009 298.737 257.01 298.735 257.011C294.286 258.267 290.217 256.736 286.563 253.385C282.891 250.016 279.687 244.845 277.05 238.985C271.774 227.263 268.847 212.968 268.896 205.353C268.908 203.547 269.597 201.509 270.843 199.396C272.085 197.288 273.863 195.135 276.006 193.105C280.294 189.044 285.997 185.523 291.669 183.866Z" fill="#A5FFB9" stroke="#28272C"/>
<path d="M246.127 70.637C249.97 70.637 252.531 71.4319 254.099 72.7415C255.645 74.0329 256.304 75.8937 256.194 78.2346C256.083 80.5906 255.191 83.396 253.667 86.4749C252.147 89.5477 250.014 92.8622 247.456 96.2288C242.339 102.962 235.547 109.872 228.635 115.433C221.711 121.004 214.72 125.179 209.204 126.509C209.084 126.538 209.003 126.527 208.942 126.503C208.878 126.479 208.799 126.425 208.711 126.311C208.525 126.068 208.352 125.62 208.241 124.925C208.02 123.55 208.074 121.453 208.426 118.842C209.128 113.634 210.998 106.52 214.042 99.3518C217.088 92.1816 221.297 84.9883 226.66 79.595C232.018 74.2056 238.504 70.637 246.127 70.637Z" fill="#EDFF8F" stroke="#28272C"/>
<path d="M306.321 276.406C308.647 276.319 311.238 276.414 314.371 276.533C317.499 276.652 321.154 276.793 325.582 276.793C334.211 276.793 342.779 282.372 349.222 289.535C352.435 293.108 355.097 297.053 356.955 300.846C358.817 304.647 359.853 308.262 359.853 311.181C359.853 312.521 359.26 313.639 358.131 314.523C356.987 315.418 355.289 316.071 353.116 316.41C348.774 317.089 342.686 316.492 335.828 314.291C322.224 309.926 305.714 299.29 294.019 280.114C298.368 277.419 301.846 276.573 306.321 276.406Z" fill="#EDFF8F" stroke="#28272C"/>
<path d="M175.858 2.25781C177.302 0.876956 178.914 0.358874 180.614 0.532227C182.334 0.707796 184.191 1.59815 186.074 3.12793C189.843 6.18859 193.586 11.7029 196.368 18.5625C201.903 32.2071 203.542 50.9291 194.284 65.7197C181.133 64.7714 174.849 55.3534 166.748 46.7617C164.825 44.7219 163.639 41.6778 163.157 38.0215C162.677 34.3709 162.906 30.1525 163.771 25.8174C165.503 17.1381 169.767 8.08137 175.858 2.25781Z" fill="#EDFF8F" stroke="#28272C"/>
<path d="M102.983 295.473C107.009 293.86 110.668 293.977 113.944 295.388C117.236 296.806 120.183 299.549 122.728 303.26C127.819 310.687 131.21 321.869 132.497 333.509C133.784 345.146 132.959 357.165 129.688 366.25C126.413 375.342 120.756 381.357 112.427 381.357C110.518 381.357 108.399 380.301 106.191 378.299C103.993 376.305 101.763 373.424 99.6406 369.897C95.3972 362.844 91.6274 353.285 89.4072 343.304C87.1863 333.32 86.5264 322.957 88.4609 314.289C90.393 305.633 94.8971 298.713 102.983 295.473Z" fill="#A5FFB9" stroke="#28272C"/>
<path d="M90.1433 296.634C95.4536 296.634 99.1935 300.133 101.498 305.583C103.804 311.04 104.619 318.357 104.085 325.711C103.55 333.063 101.671 340.391 98.6462 345.865C95.6144 351.35 91.5018 354.861 86.5251 354.861C81.5698 354.861 77.9112 351.377 75.5574 345.91C73.2059 340.448 72.221 333.125 72.5847 325.772C72.9484 318.42 74.6568 311.095 77.6365 305.627C80.6181 300.156 84.8138 296.634 90.1433 296.634Z" fill="#EDFF8F" stroke="#28272C"/>
<path d="M246.784 24.0459C249.269 23.6225 251.45 23.9903 253.225 25.2959C254.997 26.5995 255.929 28.5182 256.153 30.9209C256.377 33.3372 255.881 36.2258 254.797 39.3965C252.631 45.7355 248.163 53.0714 242.754 59.751C237.347 66.4296 231.03 72.4118 225.196 76.0635C222.278 77.8899 219.506 79.1168 217.047 79.5713C214.595 80.0245 212.493 79.7043 210.843 78.4912C209.198 77.2809 208.333 75.4254 208.148 73.0459C207.962 70.6554 208.467 67.7689 209.537 64.585C211.676 58.2205 216.028 50.796 221.32 44.0303C226.611 37.2647 232.809 31.1983 238.611 27.5273C241.512 25.6914 244.289 24.4709 246.784 24.0459Z" fill="#A5FFB9" stroke="#28272C"/>
<path d="M215.274 379.507C219.121 378.522 222.388 380.337 224.939 383.848C227.497 387.369 229.266 392.52 230.043 397.938C230.821 403.353 230.599 408.973 229.235 413.411C227.91 417.721 225.549 420.805 222.088 421.659L221.75 421.735C218.26 422.436 215.103 420.552 212.538 417.048C209.976 413.548 208.087 408.526 207.17 403.252C206.254 397.978 206.319 392.507 207.612 388.117C208.905 383.727 211.392 380.5 215.274 379.507Z" fill="#A5FFB9" stroke="#28272C"/>
<path d="M240.069 265.694C246.075 262.168 252.146 261.128 257.316 264.027C262.447 266.905 263.952 272.31 262.908 278.808C261.862 285.312 258.266 292.787 253.369 299.531C248.473 306.272 242.313 312.233 236.189 315.735C230.049 319.245 224.078 320.217 219.422 317.263C214.961 314.432 213.65 309.062 214.67 302.569C215.689 296.087 219.019 288.634 223.622 281.905C228.224 275.176 234.067 269.217 240.069 265.694Z" fill="#A5FFB9" stroke="#28272C"/>
<path d="M287.809 365.213C295.074 365.213 298.558 367.388 299.538 370.349C300.037 371.857 299.927 373.658 299.238 375.645C298.55 377.631 297.295 379.773 295.553 381.933C288.649 390.5 274.325 399.09 258.779 399.276C258.789 399.033 258.806 398.707 258.833 398.308C258.897 397.361 259.021 396.004 259.26 394.375C259.74 391.114 260.681 386.774 262.523 382.442C264.366 378.11 267.101 373.804 271.158 370.584C275.208 367.369 280.602 365.213 287.809 365.213Z" fill="#A5FFB9" stroke="#28272C"/>
<path d="M188.127 580.579H206.051L202.006 106.764L198.426 107.862L188.127 580.579Z" fill="#28272C"/>
<path d="M195.711 448.877C168.957 433.907 142.721 418.084 117.582 400.54C102.752 389.847 87.4782 379.049 75.9082 364.713C79.8264 369.413 84.3626 373.54 89.0335 377.457C112.747 396.703 139.396 411.942 165.946 426.867C176.629 432.76 187.411 438.518 198.258 444.012L195.711 448.872V448.877Z" fill="#28272C"/>
<path d="M197.479 442.35C199.438 441.006 202.489 439.187 204.527 437.903C215.932 430.903 227.589 423.843 239.221 417.264C243.326 414.959 247.446 412.654 251.719 410.671L253.589 409.912L251.793 410.824C247.713 413.149 243.826 415.787 239.938 418.424C228.939 425.935 217.935 433.947 207.192 441.859C205.758 442.925 202.984 444.983 201.574 446.058L200.966 446.539L197.484 442.35H197.479Z" fill="#28272C"/>
<path d="M195.151 328.714C195.44 328.339 195.784 327.965 196.162 327.675C197.029 326.981 198.747 325.803 199.683 325.139C224.608 308.352 249.892 291.934 275.709 276.565C279.085 274.572 282.621 272.655 286.182 270.952L287.188 270.388C287.521 270.193 287.84 269.979 288.169 269.779C292.113 267.237 295.619 264.072 298.975 260.781C305.699 254.105 311.789 246.815 317.491 239.245C312.058 247.035 306.211 254.569 299.707 261.505C296.426 264.965 292.959 268.326 289.02 271.072C288.477 271.457 287.566 272.031 286.973 272.385C283.467 274.218 280.126 276.185 276.769 278.337C251.62 294.57 226.994 311.857 202.776 329.468L200.918 330.876L200.032 331.57L199.638 331.895L199.539 331.975C199.524 331.984 199.529 331.984 199.539 331.975C199.568 331.955 199.593 331.93 199.618 331.905C199.683 331.835 199.738 331.75 199.768 331.66L195.141 328.724L195.151 328.714Z" fill="#28272C"/>
<path d="M197.152 313.274C174.404 293.871 152.162 273.791 132.498 251.274C126.105 243.712 119.707 235.861 115.652 226.776C117.825 231.239 120.719 235.289 123.772 239.174C139.431 258.373 158.45 274.552 177.368 290.478C185.002 296.791 192.757 303.005 200.596 309.005L197.157 313.279L197.152 313.274Z" fill="#28272C"/>
<path d="M195.141 262.903C204.339 256.715 213.397 250.131 222.092 243.226C230.781 236.262 239.331 229.035 246.575 220.542C243.344 225.098 239.645 229.322 235.827 233.422C224.236 245.67 211.523 256.73 198.367 267.3L195.141 262.903Z" fill="#28272C"/>
<path d="M87.7966 399.669C92.7928 397.473 96.7249 397.601 102.068 398.785C104.759 399.381 107.778 400.239 111.478 401.203C115.169 402.165 119.509 403.225 124.8 404.215L124.876 403.804L124.886 404.224H124.891L124.904 404.085C124.91 404.202 124.911 404.22 124.911 404.223H124.934C124.953 404.222 124.982 404.221 125.02 404.221C125.097 404.22 125.211 404.22 125.355 404.224C125.645 404.234 126.058 404.263 126.538 404.337C127.504 404.485 128.717 404.812 129.777 405.515C130.825 406.209 131.733 407.276 132.11 408.946C132.491 410.632 132.342 412.979 131.167 416.237C130.612 417.774 129.173 419.582 126.978 421.554C124.796 423.514 121.915 425.594 118.552 427.682C111.828 431.86 103.215 436.047 94.5007 439.367C85.7825 442.688 76.9929 445.13 69.9109 445.833C66.3681 446.185 63.2837 446.098 60.8601 445.488C58.4391 444.879 56.7317 443.765 55.8367 442.099C53.9668 438.62 54.3072 434.546 56.1238 430.244C57.9405 425.941 61.2074 421.48 65.0642 417.308C72.784 408.958 82.749 401.888 87.7966 399.669Z" fill="#EDFF8F" stroke="#28272C"/>
<path d="M239.339 297.704C249.043 288.658 260.107 290.573 271.833 290.573C274.612 290.573 277.607 291.813 280.56 294C283.508 296.184 286.378 299.286 288.895 302.94C293.935 310.254 297.509 319.703 297.509 328.251C297.508 330.283 296.772 331.837 295.48 332.971C294.174 334.119 292.262 334.868 289.875 335.194C285.097 335.845 278.575 334.771 271.746 332.052C258.162 326.645 243.6 314.83 239.339 297.704Z" fill="#EDFF8F" stroke="#28272C"/>
<path d="M146.939 117.78C150.19 116.033 153.638 115.524 157.165 116.012C164.245 116.992 171.664 121.997 178.332 129.144C184.989 136.279 190.841 145.488 194.796 154.754C198.756 164.031 200.79 173.308 199.882 180.591C199.818 181.104 199.525 181.526 198.943 181.865C198.344 182.213 197.461 182.455 196.301 182.566C193.986 182.788 190.733 182.474 186.891 181.658C179.217 180.027 169.328 176.424 160.178 171.324C151.021 166.219 142.66 159.646 137.982 152.101C135.646 148.335 134.236 144.338 134.089 140.167C133.942 135.998 135.056 131.621 137.82 127.087C140.594 122.535 143.683 119.529 146.939 117.78Z" fill="#A5FFB9" stroke="#28272C"/>
<path d="M324.732 258.448C334.909 258.448 345.826 261.645 353.787 266.089C357.769 268.312 360.98 270.83 362.992 273.386C365.006 275.945 365.768 278.468 365.033 280.768C364.67 281.903 363.732 283.16 362.235 284.429C360.746 285.692 358.738 286.937 356.298 288.059C351.418 290.302 344.853 292.031 337.359 292.43C322.426 293.226 303.841 288.742 287.604 272.586C287.708 267.431 291.684 263.904 298.374 261.644C305.137 259.359 314.48 258.449 324.732 258.448Z" fill="#A5FFB9" stroke="#28272C"/>
<path d="M142.81 292.656C149.568 290.967 157.648 290.826 165.273 291.731C172.901 292.635 180.025 294.58 184.878 297.023L184.984 297.076H185.094C185.095 297.076 185.099 297.076 185.106 297.077C185.122 297.078 185.151 297.081 185.192 297.089C185.276 297.105 185.41 297.14 185.58 297.214C185.919 297.361 186.418 297.672 186.968 298.332C188.072 299.661 189.39 302.42 189.947 308.118C190.072 309.387 189.533 310.986 188.354 312.808C187.185 314.617 185.426 316.584 183.224 318.568C178.821 322.535 172.699 326.526 166.137 329.43C159.57 332.337 152.607 334.136 146.514 333.774C140.443 333.412 135.259 330.911 132.126 325.217C126.609 315.191 126.019 307.901 128.354 302.736C130.692 297.564 136.041 294.347 142.81 292.656Z" fill="#EDFF8F" stroke="#28272C"/>
<path d="M174.062 344.183C179.004 344.035 182.954 345.323 186.046 347.633C189.143 349.948 191.414 353.313 192.946 357.372C196.013 365.501 196.083 376.329 193.961 386.706C191.84 397.082 187.545 406.918 181.977 413.075C179.195 416.15 176.119 418.282 172.864 419.131C169.622 419.977 166.155 419.565 162.542 417.471C148.479 409.316 141.384 391.275 142.834 375.084C143.558 367 146.41 359.423 151.544 353.798C156.67 348.183 164.102 344.481 174.062 344.183Z" fill="#EDFF8F" stroke="#28272C"/>
<path d="M217.503 427.158C226.172 418.569 237.445 416.855 246.45 419.104C255.508 421.368 262.046 427.551 261.643 434.575C261.548 436.234 260.681 437.558 259.178 438.596C257.661 439.643 255.515 440.384 252.942 440.833C247.801 441.731 241.114 441.443 234.811 440.312C228.5 439.179 222.653 437.216 219.163 434.819C217.412 433.617 216.331 432.358 216.007 431.111C215.696 429.913 216.053 428.594 217.503 427.158Z" fill="#A5FFB9" stroke="#28272C"/>
</svg>
